<svg width="574" height="205" viewBox="0 0 574 205" fill="none" xmlns="http://www.w3.org/2000/svg">
<mask id="path-1-outside-1_4041_7964" maskUnits="userSpaceOnUse" x="77.5" y="-0.295868" width="397" height="205" fill="black">
<rect fill="white" x="77.5" y="-0.295868" width="397" height="205"/>
<path d="M199.584 134.305C200.4 134.305 200.645 134.795 200.319 135.775C199.992 136.754 199.175 137.897 197.869 139.204C196.563 140.347 195.093 141.408 193.46 142.388C190.521 144.184 186.439 145.98 181.213 147.777C181.213 159.207 181.621 168.597 182.438 175.945C183.418 183.13 185.377 188.845 188.316 193.091C189.623 194.887 186.683 196.602 179.499 198.234C172.477 199.704 165.537 200.439 158.679 200.439L154.515 200.194C151.575 200.031 150.106 193.581 150.106 180.844C150.106 174.312 150.351 168.27 150.841 162.718L151.085 155.615L151.33 148.756H81.0324C80.8692 148.756 80.6242 148.593 80.2976 148.267C80.4609 131.774 83.4819 116.588 89.3604 102.708C95.239 88.8277 104.547 76.0908 117.284 64.4969C125.448 57.1487 131.898 49.6372 136.634 41.9624C138.43 38.8598 139.328 35.6756 139.328 32.4097C139.328 28.654 138.104 25.4697 135.654 22.857C133.368 20.081 130.102 18.6114 125.857 18.4481C124.387 18.2848 125.203 17.0601 128.306 14.774C131.572 12.4879 133.776 11.0182 134.919 10.365C139.002 8.40553 142.431 6.85424 145.207 5.71118C148.146 4.56813 151.004 3.9966 153.78 3.9966C158.515 3.9966 162.353 5.54789 165.292 8.65047C168.395 11.7531 169.946 15.4272 169.946 19.6728C169.946 21.9589 169.456 24.245 168.476 26.5311C167.007 29.797 165.129 32.7363 162.843 35.349C160.72 37.9617 157.699 41.3909 153.78 45.6365C143.982 56.0873 135.981 66.783 129.776 77.7237C123.57 88.6644 119.406 100.503 117.284 113.24C116.794 116.179 116.304 120.425 115.814 125.977C115.324 131.529 115.161 134.305 115.324 134.305H122.672H151.82C151.984 129.896 152.065 121.813 152.065 110.056L152.31 93.155C152.31 88.5827 151.902 84.9086 151.085 82.1326C150.432 79.3567 148.963 76.4174 146.677 73.3148C145.697 71.8451 147.085 69.6407 150.841 66.7014C154.596 63.7621 159.25 61.231 164.802 59.1082C170.354 56.8221 175.008 55.8424 178.764 56.1689C181.703 56.3322 183.173 63.8437 183.173 78.7035C183.173 82.9491 183.009 88.1745 182.683 94.3797L182.438 102.708C181.785 114.465 181.376 124.997 181.213 134.305H199.584ZM320.165 58.3734C327.677 75.6825 331.433 91.6853 331.433 106.382C331.433 109.648 331.351 112.097 331.188 113.73C330.534 122.221 328.82 130.549 326.044 138.714C323.431 146.879 319.92 154.39 315.511 161.248C309.633 169.903 302.366 177.251 293.712 183.293C285.22 189.172 275.259 194.479 263.829 199.214C262.849 199.704 261.298 200.276 259.175 200.929C257.052 201.582 255.338 201.909 254.031 201.909C252.562 201.909 251.827 201.419 251.827 200.439V199.459C251.01 193.091 249.459 186.967 247.173 181.089C244.887 175.047 241.703 167.944 237.62 159.779L231.497 146.797C223.985 130.468 220.229 114.546 220.229 99.0335C220.229 95.7677 220.311 93.2366 220.474 91.4404C221.781 73.4781 227.006 57.6386 236.151 43.9219C241.866 35.2673 249.051 28.0008 257.705 22.1222C266.36 16.0803 276.403 10.6916 287.833 5.95613C288.16 5.79283 289.466 5.30294 291.752 4.48648C294.038 3.67001 295.998 3.26177 297.631 3.26177C299.1 3.26177 299.835 3.75165 299.835 4.73141L300.08 6.446C300.897 12.8145 302.366 18.938 304.489 24.8165C306.775 30.5318 309.878 37.3085 313.797 45.1466C316.736 51.0252 318.859 55.4341 320.165 58.3734ZM293.957 157.084C298.855 144.511 301.305 132.019 301.305 119.609C301.305 110.627 299.998 101.728 297.386 92.91C294.773 83.9289 291.181 74.5395 286.608 64.7419L283.424 58.1285C279.832 50.7803 277.056 44.82 275.096 40.2478C273.3 35.6756 271.83 30.9401 270.687 26.0412C270.034 26.6944 269.626 27.1843 269.463 27.5109C264.564 33.8794 260.645 40.7377 257.705 48.0859C252.643 60.9861 250.112 73.968 250.112 87.0315C250.112 95.686 251.419 104.341 254.031 112.995C256.807 121.65 260.481 130.794 265.054 140.429C265.38 141.408 266.768 144.266 269.218 149.001C272.647 156.186 275.178 161.902 276.811 166.147C278.607 170.23 279.995 174.557 280.975 179.129C281.628 178.476 282.036 177.986 282.199 177.659C286.935 171.618 290.854 164.759 293.957 157.084ZM470.358 134.305C471.174 134.305 471.419 134.795 471.093 135.775C470.766 136.754 469.95 137.897 468.643 139.204C467.337 140.347 465.867 141.408 464.234 142.388C461.295 144.184 457.213 145.98 451.987 147.777C451.987 159.207 452.396 168.597 453.212 175.945C454.192 183.13 456.151 188.845 459.091 193.091C460.397 194.887 457.458 196.602 450.273 198.234C443.251 199.704 436.311 200.439 429.453 200.439L425.289 200.194C422.35 200.031 420.88 193.581 420.88 180.844C420.88 174.312 421.125 168.27 421.615 162.718L421.86 155.615L422.105 148.756H351.807C351.643 148.756 351.398 148.593 351.072 148.267C351.235 131.774 354.256 116.588 360.135 102.708C366.013 88.8277 375.321 76.0908 388.058 64.4969C396.223 57.1487 402.673 49.6372 407.408 41.9624C409.204 38.8598 410.102 35.6756 410.102 32.4097C410.102 28.654 408.878 25.4697 406.428 22.857C404.142 20.081 400.876 18.6114 396.631 18.4481C395.161 18.2848 395.978 17.0601 399.08 14.774C402.346 12.4879 404.55 11.0182 405.694 10.365C409.776 8.40553 413.205 6.85424 415.981 5.71118C418.92 4.56813 421.778 3.9966 424.554 3.9966C429.289 3.9966 433.127 5.54789 436.066 8.65047C439.169 11.7531 440.72 15.4272 440.72 19.6728C440.72 21.9589 440.23 24.245 439.25 26.5311C437.781 29.797 435.903 32.7363 433.617 35.349C431.494 37.9617 428.473 41.3909 424.554 45.6365C414.756 56.0873 406.755 66.783 400.55 77.7237C394.345 88.6644 390.181 100.503 388.058 113.24C387.568 116.179 387.078 120.425 386.588 125.977C386.098 131.529 385.935 134.305 386.098 134.305H393.447H422.594C422.758 129.896 422.839 121.813 422.839 110.056L423.084 93.155C423.084 88.5827 422.676 84.9086 421.86 82.1326C421.206 79.3567 419.737 76.4174 417.451 73.3148C416.471 71.8451 417.859 69.6407 421.615 66.7014C425.37 63.7621 430.024 61.231 435.576 59.1082C441.128 56.8221 445.782 55.8424 449.538 56.1689C452.477 56.3322 453.947 63.8437 453.947 78.7035C453.947 82.9491 453.784 88.1745 453.457 94.3797L453.212 102.708C452.559 114.465 452.151 124.997 451.987 134.305H470.358Z"/>
</mask>
<path d="M200.319 135.775L202.833 136.613L202.833 136.613L200.319 135.775ZM197.869 139.204L199.614 141.198L199.681 141.14L199.743 141.078L197.869 139.204ZM193.46 142.388L192.097 140.116L192.088 140.121L192.078 140.127L193.46 142.388ZM181.213 147.777L180.352 145.271L178.563 145.885V147.777H181.213ZM182.438 175.945L179.804 176.238L179.808 176.27L179.812 176.303L182.438 175.945ZM188.316 193.091L186.138 194.599L186.155 194.624L186.173 194.649L188.316 193.091ZM179.499 198.234L180.041 200.828L180.064 200.824L180.086 200.819L179.499 198.234ZM158.679 200.439L158.523 203.084L158.601 203.089H158.679V200.439ZM154.515 200.194L154.67 197.549L154.662 197.548L154.515 200.194ZM150.841 162.718L153.48 162.951L153.486 162.88L153.489 162.809L150.841 162.718ZM151.085 155.615L148.437 155.52L148.437 155.523L151.085 155.615ZM151.33 148.756L153.979 148.851L154.077 146.106H151.33V148.756ZM80.2976 148.267L77.6478 148.24L77.6367 149.353L78.4238 150.14L80.2976 148.267ZM89.3604 102.708L91.8006 103.741L89.3604 102.708ZM117.284 64.4969L115.511 62.5272L115.505 62.5322L115.5 62.5372L117.284 64.4969ZM136.634 41.9624L138.889 43.3539L138.909 43.3223L138.927 43.2901L136.634 41.9624ZM135.654 22.857L133.609 24.5416L133.663 24.6074L133.721 24.6695L135.654 22.857ZM125.857 18.4481L125.564 21.0819L125.659 21.0925L125.755 21.0961L125.857 18.4481ZM128.306 14.774L126.786 12.603L126.76 12.6215L126.734 12.6406L128.306 14.774ZM134.919 10.365L133.773 7.97601L133.687 8.0171L133.605 8.0642L134.919 10.365ZM145.207 5.71118L144.246 3.24136L144.222 3.25083L144.198 3.26078L145.207 5.71118ZM165.292 8.65047L163.368 10.473L163.393 10.499L163.418 10.5243L165.292 8.65047ZM168.476 26.5311L170.893 27.6186L170.903 27.5969L170.912 27.575L168.476 26.5311ZM162.843 35.349L160.848 33.604L160.816 33.6404L160.786 33.6779L162.843 35.349ZM153.78 45.6365L155.713 47.4489L155.72 47.4415L155.727 47.4339L153.78 45.6365ZM129.776 77.7237L127.471 76.4164L129.776 77.7237ZM117.284 113.24L119.898 113.676L117.284 113.24ZM115.814 125.977L113.174 125.744V125.744L115.814 125.977ZM151.82 134.305V136.955H154.374L154.468 134.403L151.82 134.305ZM152.065 110.056L149.415 110.017L149.415 110.037V110.056H152.065ZM152.31 93.155L154.96 93.1934L154.96 93.1742V93.155H152.31ZM151.085 82.1326L148.506 82.7396L148.523 82.8105L148.543 82.8804L151.085 82.1326ZM146.677 73.3148L144.472 74.7847L144.506 74.8366L144.543 74.8868L146.677 73.3148ZM164.802 59.1082L165.749 61.5835L165.78 61.5715L165.811 61.5586L164.802 59.1082ZM178.764 56.1689L178.534 58.809L178.575 58.8126L178.617 58.8149L178.764 56.1689ZM182.683 94.3797L180.036 94.2404L180.035 94.2711L180.034 94.3018L182.683 94.3797ZM182.438 102.708L185.084 102.855L185.086 102.82L185.087 102.786L182.438 102.708ZM181.213 134.305L178.564 134.259L178.516 136.955H181.213V134.305ZM199.584 136.955C199.547 136.955 199.303 136.953 198.978 136.803C198.604 136.63 198.236 136.311 198.01 135.858C197.806 135.45 197.803 135.109 197.81 134.985C197.817 134.86 197.839 134.833 197.805 134.937L202.833 136.613C203.042 135.983 203.369 134.726 202.75 133.487C201.976 131.94 200.444 131.655 199.584 131.655V136.955ZM197.805 134.937C197.674 135.329 197.206 136.119 195.995 137.33L199.743 141.078C201.145 139.676 202.31 138.18 202.833 136.613L197.805 134.937ZM196.124 137.209C194.947 138.239 193.607 139.209 192.097 140.116L194.824 144.66C196.579 143.607 198.178 142.454 199.614 141.198L196.124 137.209ZM192.078 140.127C189.371 141.781 185.49 143.504 180.352 145.271L182.075 150.283C187.387 148.457 191.671 146.587 194.842 144.649L192.078 140.127ZM178.563 147.777C178.563 159.259 178.973 168.755 179.804 176.238L185.072 175.652C184.27 168.439 183.863 159.156 183.863 147.777H178.563ZM179.812 176.303C180.827 183.744 182.885 189.9 186.138 194.599L190.495 191.582C187.87 187.79 186.008 182.515 185.064 175.587L179.812 176.303ZM186.173 194.649C186.034 194.458 185.828 193.884 186.097 193.305C186.237 193.005 186.336 193.097 185.756 193.435C184.662 194.073 182.474 194.841 178.911 195.65L180.086 200.819C183.708 199.995 186.582 199.089 188.427 198.013C189.317 197.494 190.355 196.718 190.903 195.54C191.58 194.084 191.252 192.621 190.46 191.532L186.173 194.649ZM178.956 195.641C172.104 197.075 165.346 197.789 158.679 197.789V203.089C165.728 203.089 172.849 202.334 180.041 200.828L178.956 195.641ZM158.834 197.794L154.67 197.549L154.359 202.839L158.523 203.084L158.834 197.794ZM154.662 197.548C155.031 197.569 155.054 197.818 154.791 197.423C154.498 196.984 154.129 196.124 153.792 194.645C153.125 191.717 152.756 187.16 152.756 180.844H147.456C147.456 187.264 147.822 192.301 148.624 195.823C149.022 197.569 149.571 199.148 150.381 200.363C151.22 201.621 152.529 202.738 154.368 202.84L154.662 197.548ZM152.756 180.844C152.756 174.377 152.998 168.414 153.48 162.951L148.201 162.485C147.703 168.126 147.456 174.247 147.456 180.844H152.756ZM153.489 162.809L153.734 155.706L148.437 155.523L148.192 162.627L153.489 162.809ZM153.734 155.709L153.979 148.851L148.682 148.662L148.437 155.52L153.734 155.709ZM151.33 146.106H81.0324V151.406H151.33V146.106ZM81.0324 146.106C81.4234 146.106 81.7188 146.201 81.8789 146.265C82.0443 146.332 82.1527 146.4 82.1962 146.429C82.2766 146.483 82.2725 146.494 82.1715 146.393L78.4238 150.14C78.6493 150.366 78.931 150.622 79.2563 150.839C79.5108 151.009 80.1543 151.406 81.0324 151.406V146.106ZM82.9475 148.293C83.1077 132.114 86.0693 117.273 91.8006 103.741L86.9203 101.674C80.8944 115.902 77.8142 131.434 77.6478 148.24L82.9475 148.293ZM91.8006 103.741C97.51 90.2607 106.573 77.8295 119.067 66.4566L115.5 62.5372C102.52 74.3521 92.968 87.3947 86.9203 101.674L91.8006 103.741ZM119.056 66.4666C127.369 58.985 133.996 51.2842 138.889 43.3539L134.379 40.5709C129.801 47.9902 123.527 55.3124 115.511 62.5272L119.056 66.4666ZM138.927 43.2901C140.934 39.8246 141.978 36.1865 141.978 32.4097H136.678C136.678 35.1646 135.927 37.895 134.341 40.6346L138.927 43.2901ZM141.978 32.4097C141.978 28.0168 140.521 24.1742 137.587 21.0446L133.721 24.6695C135.686 26.7652 136.678 29.2911 136.678 32.4097H141.978ZM137.7 21.1724C134.845 17.7058 130.809 15.9866 125.958 15.8001L125.755 21.0961C129.395 21.2361 131.891 22.4563 133.609 24.5416L137.7 21.1724ZM126.149 15.8143C126.152 15.8146 126.188 15.8186 126.251 15.8342C126.311 15.8494 126.419 15.8812 126.554 15.9455C126.827 16.076 127.292 16.385 127.581 16.9983C127.87 17.6134 127.812 18.1721 127.735 18.4722C127.698 18.6193 127.652 18.7246 127.624 18.7826C127.595 18.8419 127.574 18.874 127.572 18.877C127.571 18.8785 127.609 18.8224 127.719 18.7043C127.825 18.5904 127.974 18.444 128.176 18.2634C128.581 17.9001 129.142 17.4496 129.878 16.9074L126.734 12.6406C125.211 13.7624 123.862 14.887 123.162 15.9371C122.898 16.3328 122.053 17.6993 122.785 19.255C123.513 20.8012 125.094 21.0297 125.564 21.0819L126.149 15.8143ZM129.826 16.9449C133.109 14.6467 135.214 13.2486 136.234 12.6659L133.605 8.0642C132.338 8.78781 130.035 10.3291 126.786 12.603L129.826 16.9449ZM136.066 12.7541C140.123 10.8066 143.503 9.27851 146.216 8.16157L144.198 3.26078C141.358 4.42996 137.88 6.00445 133.773 7.97601L136.066 12.7541ZM146.167 8.18099C148.842 7.14096 151.374 6.6466 153.78 6.6466V1.3466C150.634 1.3466 147.451 1.99529 144.246 3.24136L146.167 8.18099ZM153.78 6.6466C157.875 6.6466 160.986 7.95863 163.368 10.473L167.216 6.82795C163.719 3.13715 159.156 1.3466 153.78 1.3466V6.6466ZM163.418 10.5243C166.042 13.1485 167.296 16.1558 167.296 19.6728H172.596C172.596 14.6985 170.747 10.3576 167.166 6.77664L163.418 10.5243ZM167.296 19.6728C167.296 21.5695 166.891 23.5017 166.041 25.4872L170.912 27.575C172.021 24.9883 172.596 22.3483 172.596 19.6728H167.296ZM166.06 25.4437C164.694 28.4783 162.957 31.1946 160.848 33.604L164.837 37.094C167.301 34.278 169.319 31.1157 170.893 27.6186L166.06 25.4437ZM160.786 33.6779C158.714 36.2275 155.736 39.6099 151.833 43.8391L155.727 47.4339C159.661 43.1718 162.725 39.6959 164.899 37.0201L160.786 33.6779ZM151.847 43.8241C141.925 54.4072 133.792 65.27 127.471 76.4164L132.081 79.0311C138.169 68.2961 146.039 57.7674 155.713 47.4489L151.847 43.8241ZM127.471 76.4164C121.108 87.6345 116.842 99.7694 114.67 112.804L119.898 113.676C121.971 101.237 126.033 89.6943 132.081 79.0311L127.471 76.4164ZM114.67 112.804C114.163 115.846 113.666 120.172 113.174 125.744L118.454 126.21C118.942 120.678 119.425 116.513 119.898 113.676L114.67 112.804ZM113.174 125.744C112.929 128.526 112.763 130.639 112.679 132.067C112.637 132.773 112.613 133.357 112.613 133.785C112.613 133.982 112.617 134.238 112.646 134.484C112.658 134.582 112.691 134.85 112.798 135.154C112.848 135.296 112.977 135.633 113.264 135.981C113.572 136.356 114.259 136.955 115.324 136.955V131.655C116.379 131.655 117.056 132.249 117.355 132.612C117.633 132.95 117.754 133.271 117.796 133.39C117.889 133.652 117.909 133.854 117.91 133.865C117.919 133.938 117.913 133.934 117.913 133.784C117.913 133.518 117.929 133.061 117.97 132.379C118.049 131.031 118.209 128.98 118.454 126.21L113.174 125.744ZM115.324 136.955H122.672V131.655H115.324V136.955ZM122.672 136.955H151.82V131.655H122.672V136.955ZM154.468 134.403C154.634 129.939 154.715 121.809 154.715 110.056H149.415C149.415 121.817 149.333 129.854 149.172 134.207L154.468 134.403ZM154.715 110.094L154.96 93.1934L149.66 93.1166L149.415 110.017L154.715 110.094ZM154.96 93.155C154.96 88.4582 154.545 84.5021 153.628 81.3849L148.543 82.8804C149.259 85.3152 149.66 88.7073 149.66 93.155H154.96ZM153.665 81.5257C152.906 78.3018 151.238 75.0382 148.81 71.7428L144.543 74.8868C146.687 77.7965 147.958 80.4115 148.506 82.7396L153.665 81.5257ZM148.881 71.8448C149.232 72.3702 148.785 72.6709 149.225 71.9712C149.673 71.2595 150.671 70.1991 152.474 68.7883L149.207 64.6145C147.254 66.143 145.68 67.6544 144.74 69.1472C143.793 70.6519 143.142 72.7897 144.472 74.7847L148.881 71.8448ZM152.474 68.7883C155.977 66.0463 160.385 63.6341 165.749 61.5835L163.856 56.633C158.115 58.828 153.215 61.4779 149.207 64.6145L152.474 68.7883ZM165.811 61.5586C171.179 59.3482 175.379 58.5346 178.534 58.809L178.993 53.5289C174.637 53.1501 169.529 54.2961 163.793 56.6578L165.811 61.5586ZM178.617 58.8149C178.065 58.7842 178.051 58.3915 178.395 58.9892C178.733 59.5776 179.124 60.665 179.47 62.4339C180.154 65.9313 180.523 71.3168 180.523 78.7035H185.823C185.823 71.2305 185.456 65.4303 184.671 61.4162C184.282 59.4293 183.755 57.6795 182.99 56.3492C182.232 55.0282 180.932 53.6353 178.911 53.523L178.617 58.8149ZM180.523 78.7035C180.523 82.8868 180.362 88.0625 180.036 94.2404L185.329 94.519C185.657 88.2865 185.823 83.0114 185.823 78.7035H180.523ZM180.034 94.3018L179.789 102.63L185.087 102.786L185.332 94.4576L180.034 94.3018ZM179.792 102.561C179.137 114.343 178.728 124.91 178.564 134.259L183.863 134.351C184.025 125.085 184.432 114.587 185.084 102.855L179.792 102.561ZM181.213 136.955H199.584V131.655H181.213V136.955ZM320.165 58.3734L322.596 57.3185L322.592 57.3078L322.587 57.2971L320.165 58.3734ZM331.188 113.73L328.551 113.466L328.548 113.496L328.545 113.527L331.188 113.73ZM326.044 138.714L323.535 137.861L323.527 137.884L323.52 137.906L326.044 138.714ZM315.511 161.248L317.704 162.737L317.722 162.71L317.741 162.681L315.511 161.248ZM293.712 183.293L295.22 185.472L295.229 185.466L293.712 183.293ZM263.829 199.214L262.815 196.766L262.728 196.802L262.644 196.844L263.829 199.214ZM259.175 200.929L259.954 203.462L259.175 200.929ZM251.827 199.459H254.477V199.29L254.455 199.122L251.827 199.459ZM247.173 181.089L244.694 182.026L244.699 182.038L244.703 182.049L247.173 181.089ZM237.62 159.779L235.224 160.909L235.236 160.937L235.25 160.964L237.62 159.779ZM231.497 146.797L229.089 147.904L229.095 147.916L229.1 147.928L231.497 146.797ZM220.474 91.4404L223.114 91.6803L223.116 91.6565L223.117 91.6326L220.474 91.4404ZM236.151 43.9219L238.356 45.3919L238.362 45.3822L236.151 43.9219ZM257.705 22.1222L259.194 24.3143L259.208 24.3048L259.222 24.2951L257.705 22.1222ZM287.833 5.95613L288.847 8.40435L288.934 8.36837L289.018 8.32634L287.833 5.95613ZM299.835 4.73141H297.185V4.91975L297.212 5.10618L299.835 4.73141ZM300.08 6.446L302.709 6.10902L302.706 6.09011L302.703 6.07123L300.08 6.446ZM304.489 24.8165L301.997 25.7166L302.012 25.7589L302.029 25.8007L304.489 24.8165ZM293.957 157.084L296.413 158.078L296.42 158.062L296.426 158.046L293.957 157.084ZM297.386 92.91L294.841 93.6503L294.845 93.6629L297.386 92.91ZM286.608 64.7419L289.01 63.6212L289.003 63.6067L288.996 63.5923L286.608 64.7419ZM283.424 58.1285L285.812 56.9789L285.808 56.9717L285.805 56.9646L283.424 58.1285ZM275.096 40.2478L272.63 41.2168L272.645 41.2545L272.66 41.2917L275.096 40.2478ZM270.687 26.0412L273.268 25.4391L272.185 20.7962L268.813 24.1674L270.687 26.0412ZM269.463 27.5109L271.563 29.1266L271.719 28.9243L271.833 28.696L269.463 27.5109ZM257.705 48.0859L255.245 47.1017L255.242 47.1098L255.239 47.1179L257.705 48.0859ZM254.031 112.995L251.494 113.761L251.501 113.783L251.508 113.805L254.031 112.995ZM265.054 140.429L267.568 139.59L267.517 139.438L267.448 139.292L265.054 140.429ZM269.218 149.001L271.609 147.86L271.591 147.822L271.571 147.784L269.218 149.001ZM276.811 166.147L274.337 167.099L274.36 167.157L274.385 167.215L276.811 166.147ZM280.975 179.129L278.384 179.684L279.404 184.447L282.849 181.003L280.975 179.129ZM282.199 177.659L280.114 176.025L279.949 176.235L279.829 176.474L282.199 177.659ZM317.734 59.4284C325.141 76.4953 328.783 92.1356 328.783 106.382H334.083C334.083 91.2351 330.213 74.8698 322.596 57.3185L317.734 59.4284ZM328.783 106.382C328.783 109.628 328.7 111.969 328.551 113.466L333.824 113.994C334.001 112.225 334.083 109.668 334.083 106.382H328.783ZM328.545 113.527C327.909 121.794 326.24 129.904 323.535 137.861L328.553 139.567C331.399 131.195 333.159 122.649 333.83 113.933L328.545 113.527ZM323.52 137.906C320.974 145.862 317.56 153.162 313.282 159.815L317.741 162.681C322.281 155.619 325.888 147.895 328.568 139.522L323.52 137.906ZM313.319 159.759C307.624 168.144 300.587 175.262 292.195 181.12L295.229 185.466C304.146 179.241 311.642 171.662 317.704 162.737L313.319 159.759ZM292.203 181.114C283.894 186.867 274.104 192.089 262.815 196.766L264.843 201.662C276.415 196.869 286.547 191.476 295.22 185.472L292.203 181.114ZM262.644 196.844C261.869 197.232 260.49 197.752 258.396 198.396L259.954 203.462C262.105 202.8 263.83 202.177 265.014 201.584L262.644 196.844ZM258.396 198.396C256.375 199.018 254.952 199.259 254.031 199.259V204.559C255.723 204.559 257.729 204.146 259.954 203.462L258.396 198.396ZM254.031 199.259C253.803 199.259 253.682 199.239 253.642 199.23C253.601 199.221 253.695 199.235 253.848 199.336C254.018 199.45 254.205 199.637 254.335 199.897C254.459 200.145 254.477 200.351 254.477 200.439H249.177C249.177 201.701 249.713 202.95 250.908 203.746C251.913 204.416 253.086 204.559 254.031 204.559V199.259ZM254.477 200.439V199.459H249.177V200.439H254.477ZM254.455 199.122C253.612 192.544 252.008 186.211 249.643 180.128L244.703 182.049C246.91 187.723 248.409 193.637 249.198 199.796L254.455 199.122ZM249.651 180.151C247.323 173.998 244.098 166.809 239.991 158.594L235.25 160.964C239.307 169.078 242.45 176.095 244.694 182.026L249.651 180.151ZM240.017 158.648L233.894 145.666L229.1 147.928L235.224 160.909L240.017 158.648ZM233.904 145.69C226.527 129.653 222.879 114.108 222.879 99.0335H217.579C217.579 114.985 221.443 131.283 229.089 147.904L233.904 145.69ZM222.879 99.0335C222.879 95.7948 222.961 93.3573 223.114 91.6803L217.835 91.2005C217.661 93.1159 217.579 95.7405 217.579 99.0335H222.879ZM223.117 91.6326C224.394 74.0835 229.488 58.693 238.356 45.3919L233.946 42.452C224.524 56.5842 219.168 72.8726 217.831 91.2482L223.117 91.6326ZM238.362 45.3822C243.885 37.019 250.824 30.0002 259.194 24.3143L256.216 19.9301C247.278 26.0013 239.847 33.5157 233.939 42.4616L238.362 45.3822ZM259.222 24.2951C267.696 18.3798 277.564 13.0787 288.847 8.40435L286.819 3.50791C275.241 8.30456 265.024 13.7809 256.188 19.9493L259.222 24.2951ZM289.018 8.32634C288.991 8.33994 289.042 8.31448 289.246 8.23288C289.425 8.16123 289.671 8.06664 289.988 7.94751C290.622 7.70973 291.505 7.38852 292.643 6.98209L290.861 1.99086C288.678 2.77055 287.159 3.33044 286.648 3.58592L289.018 8.32634ZM292.643 6.98209C294.769 6.22293 296.411 5.91177 297.631 5.91177V0.611774C295.584 0.611774 293.307 1.11708 290.861 1.99086L292.643 6.98209ZM297.631 5.91177C297.859 5.91177 297.98 5.93159 298.02 5.94052C298.061 5.94967 297.967 5.93587 297.814 5.83412C297.644 5.72059 297.457 5.53315 297.327 5.27357C297.203 5.02495 297.185 4.81931 297.185 4.73141H302.485C302.485 3.46957 301.949 2.22075 300.754 1.42425C299.749 0.754166 298.576 0.611774 297.631 0.611774V5.91177ZM297.212 5.10618L297.457 6.82078L302.703 6.07123L302.459 4.35664L297.212 5.10618ZM297.452 6.78299C298.292 13.3383 299.806 19.651 301.997 25.7166L306.982 23.9165C304.926 18.225 303.501 12.2906 302.709 6.10902L297.452 6.78299ZM302.029 25.8007C304.351 31.606 307.487 38.4529 311.427 46.3317L316.167 43.9615C312.268 36.1641 309.2 29.4577 306.95 23.8324L302.029 25.8007ZM311.427 46.3317C314.362 52.2033 316.463 56.5679 317.744 59.4497L322.587 57.2971C321.255 54.3004 319.11 49.8471 316.167 43.9615L311.427 46.3317ZM296.426 158.046C301.434 145.193 303.955 132.376 303.955 119.609H298.655C298.655 131.662 296.277 143.829 291.487 156.122L296.426 158.046ZM303.955 119.609C303.955 110.366 302.61 101.214 299.927 92.1572L294.845 93.6629C297.387 102.242 298.655 110.888 298.655 119.609H303.955ZM299.93 92.1698C297.274 83.0401 293.631 73.5233 289.01 63.6212L284.207 65.8625C288.73 75.5557 292.272 84.8176 294.841 93.6503L299.93 92.1698ZM288.996 63.5923L285.812 56.9789L281.037 59.2781L284.221 65.8915L288.996 63.5923ZM285.805 56.9646C282.221 49.6343 279.467 43.7184 277.532 39.2039L272.66 41.2917C274.645 45.9217 277.442 51.9262 281.043 59.2924L285.805 56.9646ZM277.563 39.2788C275.814 34.8288 274.383 30.216 273.268 25.4391L268.107 26.6434C269.278 31.6641 270.785 36.5224 272.63 41.2168L277.563 39.2788ZM268.813 24.1674C268.175 24.806 267.471 25.5684 267.092 26.3258L271.833 28.696C271.799 28.7638 271.78 28.7861 271.802 28.755C271.821 28.7278 271.86 28.6753 271.927 28.595C272.063 28.4321 272.268 28.2077 272.561 27.9151L268.813 24.1674ZM267.362 25.8952C262.317 32.4536 258.276 39.524 255.245 47.1017L260.166 49.0701C263.013 41.9514 266.81 35.3051 271.563 29.1266L267.362 25.8952ZM255.239 47.1179C250.063 60.3075 247.462 73.6169 247.462 87.0315H252.762C252.762 74.319 255.224 61.6647 260.172 49.0539L255.239 47.1179ZM247.462 87.0315C247.462 95.9568 248.81 104.869 251.494 113.761L256.568 112.229C254.027 103.812 252.762 95.4152 252.762 87.0315H247.462ZM251.508 113.805C254.325 122.588 258.045 131.842 262.66 141.565L267.448 139.292C262.917 129.746 259.289 120.712 256.555 112.186L251.508 113.805ZM262.54 141.267C262.767 141.949 263.276 143.065 263.956 144.464C264.664 145.922 265.635 147.843 266.864 150.219L271.571 147.784C270.351 145.425 269.403 143.549 268.723 142.149C268.015 140.691 267.667 139.888 267.568 139.59L262.54 141.267ZM266.826 150.143C270.244 157.304 272.741 162.948 274.337 167.099L279.284 165.196C277.615 160.856 275.05 155.069 271.609 147.86L266.826 150.143ZM274.385 167.215C276.106 171.125 277.44 175.28 278.384 179.684L283.566 178.574C282.55 173.834 281.108 169.335 279.236 165.08L274.385 167.215ZM282.849 181.003C283.487 180.364 284.191 179.602 284.57 178.845L279.829 176.474C279.863 176.407 279.882 176.384 279.86 176.415C279.841 176.443 279.802 176.495 279.735 176.575C279.599 176.738 279.394 176.963 279.101 177.255L282.849 181.003ZM284.285 179.294C289.185 173.042 293.225 165.965 296.413 158.078L291.5 156.091C288.483 163.554 284.685 170.193 280.114 176.025L284.285 179.294ZM471.093 135.775L473.607 136.613V136.613L471.093 135.775ZM468.643 139.204L470.388 141.198L470.455 141.14L470.517 141.078L468.643 139.204ZM464.234 142.388L462.871 140.116L462.862 140.121L462.853 140.127L464.234 142.388ZM451.987 147.777L451.126 145.271L449.337 145.885V147.777H451.987ZM453.212 175.945L450.578 176.238L450.582 176.27L450.586 176.303L453.212 175.945ZM459.091 193.091L456.912 194.599L456.929 194.624L456.947 194.649L459.091 193.091ZM450.273 198.234L450.816 200.828L450.838 200.824L450.86 200.819L450.273 198.234ZM429.453 200.439L429.297 203.084L429.375 203.089H429.453V200.439ZM425.289 200.194L425.444 197.549L425.436 197.548L425.289 200.194ZM421.615 162.718L424.254 162.951L424.261 162.88L424.263 162.809L421.615 162.718ZM421.86 155.615L419.211 155.52L419.211 155.523L421.86 155.615ZM422.105 148.756L424.753 148.851L424.851 146.106H422.105V148.756ZM351.072 148.267L348.422 148.24L348.411 149.353L349.198 150.14L351.072 148.267ZM360.135 102.708L362.575 103.741L360.135 102.708ZM388.058 64.4969L386.285 62.5272L386.28 62.5322L386.274 62.5372L388.058 64.4969ZM407.408 41.9624L409.663 43.3539L409.683 43.3223L409.702 43.2901L407.408 41.9624ZM406.428 22.857L404.383 24.5416L404.437 24.6074L404.495 24.6695L406.428 22.857ZM396.631 18.4481L396.338 21.0819L396.433 21.0925L396.529 21.0961L396.631 18.4481ZM399.08 14.774L397.56 12.603L397.534 12.6215L397.508 12.6406L399.08 14.774ZM405.694 10.365L404.547 7.97601L404.461 8.0171L404.379 8.0642L405.694 10.365ZM415.981 5.71118L415.021 3.24136L414.996 3.25083L414.972 3.26078L415.981 5.71118ZM436.066 8.65047L434.142 10.473L434.167 10.499L434.192 10.5243L436.066 8.65047ZM439.25 26.5311L441.667 27.6186L441.677 27.5969L441.686 27.575L439.25 26.5311ZM433.617 35.349L431.622 33.604L431.591 33.6404L431.56 33.6779L433.617 35.349ZM424.554 45.6365L426.487 47.4489L426.494 47.4415L426.501 47.4339L424.554 45.6365ZM400.55 77.7237L398.245 76.4164L400.55 77.7237ZM388.058 113.24L390.672 113.676L388.058 113.24ZM386.588 125.977L383.948 125.744V125.744L386.588 125.977ZM422.594 134.305V136.955H425.148L425.243 134.403L422.594 134.305ZM422.839 110.056L420.19 110.017L420.189 110.037V110.056H422.839ZM423.084 93.155L425.734 93.1934L425.734 93.1742V93.155H423.084ZM421.86 82.1326L419.28 82.7396L419.297 82.8105L419.317 82.8804L421.86 82.1326ZM417.451 73.3148L415.246 74.7847L415.28 74.8366L415.317 74.8868L417.451 73.3148ZM435.576 59.1082L436.523 61.5835L436.554 61.5715L436.585 61.5586L435.576 59.1082ZM449.538 56.1689L449.308 58.809L449.35 58.8126L449.391 58.8149L449.538 56.1689ZM453.457 94.3797L450.811 94.2404L450.809 94.2711L450.808 94.3018L453.457 94.3797ZM453.212 102.708L455.858 102.855L455.86 102.82L455.861 102.786L453.212 102.708ZM451.987 134.305L449.338 134.259L449.29 136.955H451.987V134.305ZM470.358 136.955C470.321 136.955 470.078 136.953 469.753 136.803C469.378 136.63 469.01 136.311 468.784 135.858C468.58 135.45 468.578 135.109 468.585 134.985C468.591 134.86 468.613 134.833 468.579 134.937L473.607 136.613C473.816 135.983 474.144 134.726 473.524 133.487C472.75 131.94 471.219 131.655 470.358 131.655V136.955ZM468.579 134.937C468.448 135.329 467.98 136.119 466.769 137.33L470.517 141.078C471.919 139.676 473.084 138.18 473.607 136.613L468.579 134.937ZM466.898 137.209C465.721 138.239 464.382 139.209 462.871 140.116L465.598 144.66C467.353 143.607 468.952 142.454 470.388 141.198L466.898 137.209ZM462.853 140.127C460.145 141.781 456.264 143.504 451.126 145.271L452.849 150.283C458.161 148.457 462.445 146.587 465.616 144.649L462.853 140.127ZM449.337 147.777C449.337 159.259 449.747 168.755 450.578 176.238L455.846 175.652C455.044 168.439 454.637 159.156 454.637 147.777H449.337ZM450.586 176.303C451.601 183.744 453.659 189.9 456.912 194.599L461.269 191.582C458.644 187.79 456.783 182.515 455.838 175.587L450.586 176.303ZM456.947 194.649C456.808 194.458 456.602 193.884 456.871 193.305C457.011 193.005 457.11 193.097 456.531 193.435C455.436 194.073 453.248 194.841 449.685 195.65L450.86 200.819C454.483 199.995 457.356 199.089 459.201 198.013C460.091 197.494 461.129 196.718 461.677 195.54C462.355 194.084 462.026 192.621 461.234 191.532L456.947 194.649ZM449.73 195.641C442.879 197.075 436.121 197.789 429.453 197.789V203.089C436.502 203.089 443.624 202.334 450.816 200.828L449.73 195.641ZM429.608 197.794L425.444 197.549L425.133 202.839L429.297 203.084L429.608 197.794ZM425.436 197.548C425.805 197.569 425.828 197.818 425.565 197.423C425.273 196.984 424.903 196.124 424.566 194.645C423.899 191.717 423.53 187.16 423.53 180.844H418.23C418.23 187.264 418.596 192.301 419.398 195.823C419.796 197.569 420.345 199.148 421.155 200.363C421.994 201.621 423.303 202.738 425.142 202.84L425.436 197.548ZM423.53 180.844C423.53 174.377 423.772 168.414 424.254 162.951L418.975 162.485C418.477 168.126 418.23 174.247 418.23 180.844H423.53ZM424.263 162.809L424.508 155.706L419.211 155.523L418.966 162.627L424.263 162.809ZM424.508 155.709L424.753 148.851L419.456 148.662L419.211 155.52L424.508 155.709ZM422.105 146.106H351.807V151.406H422.105V146.106ZM351.807 146.106C352.198 146.106 352.493 146.201 352.653 146.265C352.819 146.332 352.927 146.4 352.97 146.429C353.051 146.483 353.047 146.494 352.946 146.393L349.198 150.14C349.424 150.366 349.705 150.622 350.03 150.839C350.285 151.009 350.928 151.406 351.807 151.406V146.106ZM353.722 148.293C353.882 132.114 356.843 117.273 362.575 103.741L357.694 101.674C351.669 115.902 348.588 131.434 348.422 148.24L353.722 148.293ZM362.575 103.741C368.284 90.2607 377.348 77.8295 389.842 66.4566L386.274 62.5372C373.294 74.3521 363.742 87.3947 357.694 101.674L362.575 103.741ZM389.831 66.4666C398.144 58.985 404.77 51.2842 409.663 43.3539L405.153 40.5709C400.575 47.9902 394.301 55.3124 386.285 62.5272L389.831 66.4666ZM409.702 43.2901C411.708 39.8246 412.752 36.1865 412.752 32.4097H407.452C407.452 35.1646 406.701 37.895 405.115 40.6346L409.702 43.2901ZM412.752 32.4097C412.752 28.0168 411.296 24.1742 408.362 21.0446L404.495 24.6695C406.46 26.7652 407.452 29.2911 407.452 32.4097H412.752ZM408.474 21.1724C405.619 17.7058 401.584 15.9866 396.733 15.8001L396.529 21.0961C400.169 21.2361 402.665 22.4563 404.383 24.5416L408.474 21.1724ZM396.923 15.8143C396.926 15.8146 396.962 15.8186 397.025 15.8342C397.086 15.8494 397.193 15.8812 397.328 15.9455C397.602 16.076 398.066 16.385 398.355 16.9983C398.644 17.6134 398.586 18.1721 398.509 18.4722C398.472 18.6193 398.426 18.7246 398.398 18.7826C398.369 18.8419 398.348 18.874 398.346 18.877C398.345 18.8785 398.383 18.8224 398.493 18.7043C398.599 18.5904 398.748 18.444 398.95 18.2634C399.356 17.9001 399.916 17.4496 400.652 16.9074L397.508 12.6406C395.986 13.7624 394.636 14.887 393.936 15.9371C393.672 16.3328 392.827 17.6993 393.559 19.255C394.287 20.8012 395.868 21.0297 396.338 21.0819L396.923 15.8143ZM400.6 16.9449C403.883 14.6467 405.989 13.2486 407.008 12.6659L404.379 8.0642C403.112 8.78781 400.809 10.3291 397.56 12.603L400.6 16.9449ZM406.84 12.7541C410.898 10.8066 414.277 9.27851 416.99 8.16157L414.972 3.26078C412.133 4.42996 408.654 6.00445 404.547 7.97601L406.84 12.7541ZM416.942 8.18099C419.616 7.14096 422.148 6.6466 424.554 6.6466V1.3466C421.408 1.3466 418.225 1.99529 415.021 3.24136L416.942 8.18099ZM424.554 6.6466C428.649 6.6466 431.76 7.95863 434.142 10.473L437.99 6.82795C434.493 3.13715 429.93 1.3466 424.554 1.3466V6.6466ZM434.192 10.5243C436.817 13.1485 438.07 16.1558 438.07 19.6728H443.37C443.37 14.6985 441.521 10.3576 437.94 6.77664L434.192 10.5243ZM438.07 19.6728C438.07 21.5695 437.666 23.5017 436.815 25.4872L441.686 27.575C442.795 24.9883 443.37 22.3483 443.37 19.6728H438.07ZM436.834 25.4437C435.468 28.4783 433.731 31.1946 431.622 33.604L435.611 37.094C438.075 34.278 440.093 31.1157 441.667 27.6186L436.834 25.4437ZM431.56 33.6779C429.489 36.2275 426.511 39.6099 422.607 43.8391L426.501 47.4339C430.435 43.1718 433.499 39.6959 435.673 37.0201L431.56 33.6779ZM422.621 43.8241C412.699 54.4072 404.567 65.27 398.245 76.4164L402.855 79.0311C408.943 68.2961 416.814 57.7674 426.487 47.4489L422.621 43.8241ZM398.245 76.4164C391.882 87.6345 387.616 99.7694 385.444 112.804L390.672 113.676C392.745 101.237 396.807 89.6943 402.855 79.0311L398.245 76.4164ZM385.444 112.804C384.937 115.846 384.44 120.172 383.948 125.744L389.228 126.21C389.716 120.678 390.199 116.513 390.672 113.676L385.444 112.804ZM383.948 125.744C383.703 128.526 383.537 130.639 383.453 132.067C383.411 132.773 383.387 133.357 383.387 133.785C383.387 133.982 383.392 134.238 383.421 134.484C383.432 134.582 383.465 134.85 383.573 135.154C383.622 135.296 383.752 135.633 384.038 135.981C384.346 136.356 385.033 136.955 386.098 136.955V131.655C387.153 131.655 387.83 132.249 388.13 132.612C388.407 132.95 388.528 133.271 388.57 133.39C388.663 133.652 388.683 133.854 388.684 133.865C388.693 133.938 388.687 133.934 388.687 133.784C388.687 133.518 388.704 133.061 388.744 132.379C388.823 131.031 388.983 128.98 389.228 126.21L383.948 125.744ZM386.098 136.955H393.447V131.655H386.098V136.955ZM393.447 136.955H422.594V131.655H393.447V136.955ZM425.243 134.403C425.408 129.939 425.489 121.809 425.489 110.056H420.189C420.189 121.817 420.107 129.854 419.946 134.207L425.243 134.403ZM425.489 110.094L425.734 93.1934L420.435 93.1166L420.19 110.017L425.489 110.094ZM425.734 93.155C425.734 88.4582 425.319 84.5021 424.402 81.3849L419.317 82.8804C420.033 85.3152 420.434 88.7073 420.434 93.155H425.734ZM424.439 81.5257C423.681 78.3018 422.012 75.0382 419.584 71.7428L415.317 74.8868C417.461 77.7965 418.732 80.4115 419.28 82.7396L424.439 81.5257ZM419.656 71.8448C420.006 72.3702 419.559 72.6709 419.999 71.9712C420.447 71.2595 421.445 70.1991 423.248 68.7883L419.981 64.6145C418.028 66.143 416.454 67.6544 415.514 69.1472C414.567 70.6519 413.916 72.7897 415.246 74.7847L419.656 71.8448ZM423.248 68.7883C426.751 66.0463 431.16 63.6341 436.523 61.5835L434.63 56.633C428.889 58.828 423.989 61.4779 419.981 64.6145L423.248 68.7883ZM436.585 61.5586C441.954 59.3482 446.153 58.5346 449.308 58.809L449.767 53.5289C445.411 53.1501 440.303 54.2961 434.567 56.6578L436.585 61.5586ZM449.391 58.8149C448.839 58.7842 448.826 58.3915 449.169 58.9892C449.507 59.5776 449.898 60.665 450.244 62.4339C450.928 65.9313 451.297 71.3168 451.297 78.7035H456.597C456.597 71.2305 456.231 65.4303 455.445 61.4162C455.057 59.4293 454.529 57.6795 453.765 56.3492C453.006 55.0282 451.706 53.6353 449.685 53.523L449.391 58.8149ZM451.297 78.7035C451.297 82.8868 451.136 88.0625 450.811 94.2404L456.103 94.519C456.431 88.2865 456.597 83.0114 456.597 78.7035H451.297ZM450.808 94.3018L450.563 102.63L455.861 102.786L456.106 94.4576L450.808 94.3018ZM450.566 102.561C449.912 114.343 449.502 124.91 449.338 134.259L454.637 134.351C454.799 125.085 455.206 114.587 455.858 102.855L450.566 102.561ZM451.987 136.955H470.358V131.655H451.987V136.955Z" fill="url(#paint0_linear_4041_7964)" mask="url(#path-1-outside-1_4041_7964)"/>
<path d="M509.762 181.61C508.025 181.937 506.289 182.263 504.552 182.372C501.839 180.632 499.451 179.109 497.497 178.022C497.497 177.804 497.606 177.478 497.606 177.043C497.714 176.064 497.823 175.194 497.931 174.433C499.777 175.194 501.73 176.173 503.575 177.26C505.42 178.457 507.483 179.87 509.762 181.61ZM496.303 182.263C495.001 182.154 493.807 181.937 492.613 181.61C487.729 180.523 484.473 178.892 482.736 176.825C484.039 176.934 485.341 177.152 486.752 177.587C489.032 178.13 492.179 179.653 496.303 182.263ZM481.76 175.194C481.651 174.759 481.651 174.324 481.868 173.889C482.085 173.236 482.628 172.693 483.496 172.366C484.69 171.823 486.535 171.714 488.923 172.04C491.311 172.366 494.024 173.019 496.846 173.998C496.629 174.977 496.412 175.955 496.412 176.825C496.412 177.043 496.412 177.26 496.412 177.478C495.327 176.934 494.458 176.608 493.59 176.282C489.9 174.977 486.318 174.542 482.954 174.977C482.519 175.085 482.194 175.085 481.76 175.194ZM478.504 191.942C477.852 191.725 477.201 191.398 476.659 191.072C476.116 190.746 475.682 190.528 475.248 190.202C473.185 188.571 472.1 186.722 471.991 184.764C471.883 182.807 472.86 180.958 474.705 179.327C476.224 178.022 477.961 177.26 479.915 177.043C480.349 176.934 480.891 176.934 481.434 176.934C483.171 179.435 486.752 181.393 492.288 182.589C494.133 183.024 496.086 183.242 498.04 183.459C499.777 184.547 501.622 185.852 503.684 187.157C505.203 188.244 506.397 189.114 507.265 189.658C509.653 191.29 511.932 192.595 513.995 193.573C516.057 194.552 518.01 195.205 519.964 195.531C522.569 196.075 525.065 196.075 527.236 195.748C528.973 195.422 530.492 194.878 531.794 194.008C533.531 194.661 535.376 195.096 537.004 195.422C544.927 197.162 552.742 196.292 560.339 193.03C565.983 190.637 569.782 187.483 571.844 183.677C573.906 179.87 573.906 176.064 571.735 172.475C569.456 168.56 565.549 166.168 560.014 165.08C554.587 163.992 549.052 164.645 543.516 167.038C539.392 168.778 536.57 171.061 535.05 173.78C533.531 176.499 533.64 179.327 535.268 182.046C537.004 184.982 539.935 186.831 543.733 187.592C547.641 188.353 551.656 187.809 555.889 186.069C558.169 185.091 560.122 183.894 561.859 182.589C563.595 181.284 564.246 180.305 564.029 179.979C564.029 179.979 564.029 179.87 563.921 179.87C563.812 179.87 563.812 179.87 563.812 179.87C563.704 179.87 562.836 180.632 561.099 181.937C559.471 183.242 557.626 184.329 555.781 185.199C551.765 186.939 547.966 187.483 544.385 186.831C540.694 186.178 538.089 184.547 536.57 181.937C535.268 179.653 535.159 177.369 536.57 175.194C537.872 172.91 540.369 171.061 543.95 169.539C549.052 167.364 554.153 166.82 559.471 167.799C564.681 168.778 568.371 171.061 570.542 174.542C572.387 177.695 572.387 180.849 570.542 184.003C568.588 187.157 565.223 189.876 560.231 191.942C553.827 194.661 547.315 195.205 540.803 193.573C538.741 193.03 536.57 192.268 534.291 191.29C534.725 190.528 534.942 189.658 534.942 188.679C534.942 186.939 534.074 185.526 532.554 184.221C531.252 183.133 529.841 182.589 528.213 182.589C526.585 182.481 525.282 182.916 524.197 183.894C523.98 184.112 523.871 184.221 523.763 184.329C523.654 184.438 523.546 184.547 523.546 184.656C524.74 184.873 525.825 185.199 526.91 185.634C527.887 186.069 528.864 186.613 529.624 187.266C530.818 188.244 531.577 189.223 531.903 190.202C527.562 188.027 522.895 184.982 517.902 181.067C518.553 180.849 519.204 180.632 519.856 180.305C520.507 180.088 521.049 179.87 521.592 179.653C526.585 177.587 529.949 174.759 531.903 171.279C533.857 167.799 533.857 164.536 532.012 161.382C530.275 158.446 527.344 156.597 523.22 155.836C519.204 155.183 514.971 155.836 510.413 157.685C506.94 159.207 504.118 161.056 502.056 163.449C499.885 165.841 498.366 168.56 497.497 171.823C494.133 171.17 491.311 170.844 488.814 170.844C486.318 170.844 484.473 171.061 483.062 171.714C481.868 172.258 481.108 172.91 480.891 173.78C480.674 174.324 480.674 174.868 480.891 175.52C478.395 176.173 476.224 177.26 474.379 178.892C468.844 183.568 469.495 189.549 475.03 194.008C476.659 195.313 478.395 196.183 480.023 196.618C481.651 197.053 482.954 196.836 483.822 196.183C484.365 195.748 484.69 195.096 484.582 194.335C484.473 193.573 484.147 193.03 483.605 192.486C482.736 191.833 481.868 191.398 481 191.181C480.132 190.963 479.48 191.181 479.046 191.507C478.938 191.616 478.938 191.725 478.721 191.833C478.612 191.833 478.504 191.833 478.504 191.942ZM530.926 193.682C530.926 193.791 530.926 193.791 530.926 193.682C529.298 195.096 527.127 195.205 524.088 194.226C521.158 193.247 517.251 191.072 512.258 187.701C511.281 187.048 510.087 186.178 508.351 184.982C507.483 184.329 506.723 183.786 505.854 183.242C507.591 183.133 509.436 182.916 511.281 182.698C518.228 187.809 524.74 191.507 530.926 193.682ZM515.948 179.979C513.235 178.239 510.413 176.717 507.591 175.412C504.661 174.107 501.622 173.019 498.474 172.149C499.234 169.104 500.536 166.385 502.707 164.101C504.769 161.817 507.483 159.969 510.847 158.446C514.754 156.815 518.445 156.271 522.026 156.815C525.608 157.359 528.104 158.881 529.515 161.382C531.143 164.101 530.818 167.255 528.647 170.735C526.476 174.215 522.895 177.043 518.01 179.109C517.793 179.218 517.468 179.327 517.034 179.544C516.491 179.762 516.165 179.87 515.948 179.979Z" fill="#781F1C"/>
<path d="M64.1542 181.61C65.8908 181.937 67.6274 182.263 69.3639 182.372C72.0773 180.632 74.4651 179.109 76.4187 178.022C76.4187 177.804 76.3102 177.478 76.3102 177.043C76.2017 176.064 76.0931 175.194 75.9846 174.433C74.1395 175.194 72.1859 176.173 70.3408 177.26C68.4957 178.457 66.4335 179.87 64.1542 181.61ZM77.6126 182.263C78.915 182.154 80.1089 181.937 81.3028 181.61C86.1869 180.523 89.443 178.892 91.1795 176.825C89.8771 176.934 88.5747 177.152 87.1637 177.587C84.8845 178.13 81.737 179.653 77.6126 182.263ZM92.1564 175.194C92.2649 174.759 92.2649 174.324 92.0478 173.889C91.8307 173.236 91.2881 172.693 90.4198 172.366C89.2259 171.823 87.3808 171.714 84.993 172.04C82.6052 172.366 79.8919 173.019 77.0699 173.998C77.287 174.977 77.5041 175.955 77.5041 176.825C77.5041 177.043 77.5041 177.26 77.5041 177.478C78.5894 176.934 79.4577 176.608 80.326 176.282C84.0162 174.977 87.5979 174.542 90.9625 174.977C91.3966 175.085 91.7222 175.085 92.1564 175.194ZM95.4124 191.942C96.0636 191.725 96.7148 191.398 97.2575 191.072C97.8002 190.746 98.2343 190.528 98.6685 190.202C100.731 188.571 101.816 186.722 101.925 184.764C102.033 182.807 101.056 180.958 99.2111 179.327C97.6917 178.022 95.9551 177.26 94.0015 177.043C93.5673 176.934 93.0246 176.934 92.482 176.934C90.7454 179.435 87.1637 181.393 81.6284 182.589C79.7833 183.024 77.8297 183.242 75.8761 183.459C74.1395 184.547 72.2944 185.852 70.2322 187.157C68.7127 188.244 67.5188 189.114 66.6506 189.658C64.2628 191.29 61.9835 192.595 59.9214 193.573C57.8592 194.552 55.9056 195.205 53.9519 195.531C51.3471 196.075 48.8508 196.075 46.6801 195.748C44.9435 195.422 43.424 194.878 42.1216 194.008C40.385 194.661 38.5399 195.096 36.9119 195.422C28.9888 197.162 21.1743 196.292 13.5768 193.03C7.93297 190.637 4.13423 187.483 2.07207 183.677C0.00989532 179.87 0.0098877 176.064 2.1806 172.475C4.45984 168.56 8.36711 166.168 13.9024 165.08C19.3292 163.992 24.8645 164.645 30.3998 167.038C34.5241 168.778 37.346 171.061 38.8655 173.78C40.385 176.499 40.2765 179.327 38.6485 182.046C36.9119 184.982 33.9814 186.831 30.1827 187.592C26.2754 188.353 22.2596 187.809 18.0268 186.069C15.7475 185.091 13.7939 183.894 12.0573 182.589C10.3207 181.284 9.66954 180.305 9.88661 179.979C9.88661 179.979 9.8866 179.87 9.99514 179.87C10.1037 179.87 10.1037 179.87 10.1037 179.87C10.2122 179.87 11.0805 180.632 12.8171 181.937C14.4451 183.242 16.2902 184.329 18.1353 185.199C22.1511 186.939 25.9498 187.483 29.5315 186.831C33.2217 186.178 35.8265 184.547 37.346 181.937C38.6485 179.653 38.757 177.369 37.346 175.194C36.0436 172.91 33.5473 171.061 29.9656 169.539C24.8645 167.364 19.7633 166.82 14.4451 167.799C9.2354 168.778 5.5452 171.061 3.37449 174.542C1.52939 177.695 1.52939 180.849 3.37449 184.003C5.32812 187.157 8.69272 189.876 13.6853 191.942C20.0889 194.661 26.601 195.205 33.1132 193.573C35.1753 193.03 37.346 192.268 39.6253 191.29C39.1911 190.528 38.9741 189.658 38.9741 188.679C38.9741 186.939 39.8423 185.526 41.3618 184.221C42.6643 183.133 44.0752 182.589 45.7032 182.589C47.3313 182.481 48.6337 182.916 49.7191 183.894C49.9361 184.112 50.0447 184.221 50.1532 184.329C50.2617 184.438 50.3703 184.547 50.3703 184.656C49.1764 184.873 48.091 185.199 47.0057 185.634C46.0289 186.069 45.052 186.613 44.2923 187.266C43.0984 188.244 42.3387 189.223 42.0131 190.202C46.3545 188.027 51.0215 184.982 56.0141 181.067C55.3629 180.849 54.7117 180.632 54.0605 180.305C53.4093 180.088 52.8666 179.87 52.3239 179.653C47.3313 177.587 43.9667 174.759 42.0131 171.279C40.0594 167.799 40.0594 164.536 41.9045 161.382C43.6411 158.446 46.5715 156.597 50.6959 155.836C54.7117 155.183 58.9446 155.836 63.503 157.685C66.9762 159.207 69.7981 161.056 71.8603 163.449C74.031 165.841 75.5505 168.56 76.4187 171.823C79.7833 171.17 82.6052 170.844 85.1016 170.844C87.5979 170.844 89.443 171.061 90.8539 171.714C92.0478 172.258 92.8076 172.91 93.0246 173.78C93.2417 174.324 93.2417 174.868 93.0246 175.52C95.5209 176.173 97.6917 177.26 99.5368 178.892C105.072 183.568 104.421 189.549 98.8855 194.008C97.2575 195.313 95.5209 196.183 93.8929 196.618C92.2649 197.053 90.9625 196.836 90.0942 196.183C89.5515 195.748 89.2259 195.096 89.3344 194.335C89.443 193.573 89.7686 193.03 90.3113 192.486C91.1795 191.833 92.0478 191.398 92.9161 191.181C93.7844 190.963 94.4356 191.181 94.8697 191.507C94.9783 191.616 94.9783 191.725 95.1953 191.833C95.3039 191.833 95.4124 191.833 95.4124 191.942ZM42.9899 193.682C42.9899 193.791 42.9899 193.791 42.9899 193.682C44.6179 195.096 46.7886 195.205 49.8276 194.226C52.758 193.247 56.6653 191.072 61.6579 187.701C62.6348 187.048 63.8286 186.178 65.5652 184.982C66.4335 184.329 67.1932 183.786 68.0615 183.242C66.325 183.133 64.4799 182.916 62.6348 182.698C55.6885 187.809 49.1764 191.507 42.9899 193.682ZM57.9677 179.979C60.6811 178.239 63.503 176.717 66.325 175.412C69.2554 174.107 72.2944 173.019 75.4419 172.149C74.6822 169.104 73.3797 166.385 71.209 164.101C69.1469 161.817 66.4335 159.969 63.0689 158.446C59.1616 156.815 55.4714 156.271 51.8898 156.815C48.3081 157.359 45.8118 158.881 44.4008 161.382C42.7728 164.101 43.0984 167.255 45.2691 170.735C47.4398 174.215 51.0215 177.043 55.9056 179.109C56.1226 179.218 56.4482 179.327 56.8824 179.544C57.4251 179.762 57.7507 179.87 57.9677 179.979Z" fill="#781F1C"/>
<defs>
<linearGradient id="paint0_linear_4041_7964" x1="481.5" y1="113.906" x2="70.5" y2="113.906" gradientUnits="userSpaceOnUse">
<stop stop-color="#110404"/>
<stop offset="0.0949145" stop-color="#110404"/>
<stop offset="0.17886" stop-color="#661C19"/>
<stop offset="0.818789" stop-color="#661C19"/>
<stop offset="0.907601" stop-color="#110404"/>
<stop offset="1" stop-color="#110404"/>
</linearGradient>
</defs>
</svg>
