<svg width="24" height="24" viewBox="0 0 24 24" fill="none" xmlns="http://www.w3.org/2000/svg">
<g clip-path="url(#clip0_526_6960)">
<path fill-rule="evenodd" clip-rule="evenodd" d="M12.4492 0.443359C18.8007 0.443359 23.9492 5.59186 23.9492 11.9434C23.9492 18.2949 18.8007 23.4434 12.4492 23.4434C6.09771 23.4434 0.949219 18.2949 0.949219 11.9434C0.949219 5.59186 6.09771 0.443359 12.4492 0.443359Z" fill="#6D120C"/>
<path d="M17.6249 7.78854L15.9875 16.0429C15.9875 16.0429 15.7584 16.6152 15.1291 16.3408L11.3512 13.4442L11.3336 13.4357C11.8439 12.9775 15.8011 9.41965 15.9741 9.25838C16.2418 9.00861 16.0756 8.85992 15.7647 9.04859L9.9195 12.7605L7.66442 12.0018C7.66442 12.0018 7.30954 11.8755 7.27539 11.6011C7.24081 11.3261 7.6761 11.1774 7.6761 11.1774L16.8694 7.57111C16.8694 7.57111 17.6249 7.23914 17.6249 7.78854Z" fill="#EADDAD"/>
</g>
<defs>
<clipPath id="clip0_526_6960">
<rect width="23" height="23" fill="white" transform="translate(0.949219 0.443359)"/>
</clipPath>
</defs>
</svg>
