<svg width="25" height="25" viewBox="0 0 25 25" fill="none" xmlns="http://www.w3.org/2000/svg">
<g clip-path="url(#clip0_1111_8269)">
<path d="M12.9238 24.9434C19.5512 24.9434 24.9238 19.5708 24.9238 12.9434C24.9238 6.31594 19.5512 0.943359 12.9238 0.943359C6.29641 0.943359 0.923828 6.31594 0.923828 12.9434C0.923828 19.5708 6.29641 24.9434 12.9238 24.9434Z" fill="#781F1C"/>
<path d="M19.8394 17.6397C19.4904 17.6888 17.7831 17.6397 17.6944 17.6397C17.2531 17.6454 16.8273 17.4768 16.5094 17.1706C16.1494 16.8243 15.8276 16.4424 15.4758 16.0797C15.3718 15.9696 15.2591 15.8679 15.139 15.7756C14.8581 15.5588 14.5799 15.6079 14.4476 15.9393C14.3443 16.2973 14.2722 16.6637 14.2322 17.0343C14.209 17.3697 13.9963 17.5797 13.6199 17.6029C13.3867 17.6152 13.1535 17.6193 12.9231 17.6138C12.0832 17.6084 11.2566 17.4042 10.5108 17.0179C9.7039 16.5683 9.00088 15.9535 8.44763 15.2138C7.53808 14.052 6.81126 12.7756 6.16217 11.4597C6.12808 11.3943 5.46263 9.97881 5.44626 9.91199C5.38626 9.68835 5.44626 9.47426 5.63036 9.40063C5.74763 9.35563 7.94036 9.40063 7.97717 9.40063C8.14019 9.39921 8.29942 9.44972 8.43181 9.54485C8.5642 9.63997 8.66287 9.77477 8.71354 9.92972C9.11888 10.9676 9.67385 11.9406 10.3608 12.8179C10.457 12.9352 10.5695 13.0381 10.6949 13.1234C10.8735 13.2447 11.0426 13.2024 11.1163 12.9965C11.2035 12.7108 11.2548 12.4154 11.269 12.117C11.2813 11.5252 11.269 11.1352 11.2363 10.5447C11.2144 10.1656 11.0808 9.8329 10.5217 9.72653C10.3499 9.69653 10.3349 9.55472 10.4454 9.4129C10.6758 9.11835 10.9908 9.07199 11.344 9.05426C11.8704 9.02426 12.3967 9.04472 12.9231 9.05426H13.0376C13.2667 9.05343 13.4952 9.07674 13.7194 9.12381C13.852 9.15061 13.9723 9.21952 14.0625 9.32027C14.1527 9.42102 14.2079 9.54822 14.2199 9.6829C14.2468 9.83223 14.2583 9.98395 14.254 10.1356C14.2404 10.782 14.209 11.427 14.2022 12.0734C14.1959 12.3293 14.2192 12.5851 14.2717 12.8356C14.3467 13.1793 14.5826 13.2652 14.8172 13.017C15.1209 12.6962 15.3994 12.3524 15.6504 11.9888C16.0941 11.3261 16.4601 10.6146 16.7413 9.86835C16.894 9.48517 17.014 9.40063 17.4231 9.40063H19.7494C19.8878 9.3982 20.0257 9.41659 20.1585 9.45517C20.2056 9.46753 20.2495 9.48946 20.2877 9.5196C20.3258 9.54974 20.3574 9.58743 20.3803 9.63031C20.4032 9.67319 20.417 9.72035 20.4209 9.76882C20.4247 9.81729 20.4185 9.86603 20.4026 9.91199C20.2881 10.422 20.0126 10.857 19.7208 11.2756C19.2476 11.9465 18.7485 12.5997 18.2644 13.2597C18.2032 13.3472 18.1472 13.4383 18.0967 13.5324C17.914 13.8611 17.9276 14.0452 18.1922 14.3193C18.6149 14.7529 19.0663 15.1606 19.474 15.6079C19.7734 15.9331 20.0435 16.284 20.2813 16.6565C20.5799 17.1188 20.3958 17.5606 19.8394 17.6397Z" fill="#EADDAD"/>
</g>
<defs>
<clipPath id="clip0_1111_8269">
<rect width="24" height="24" fill="white" transform="translate(0.923828 0.943359)"/>
</clipPath>
</defs>
</svg>
