<svg width="24" height="24" viewBox="0 0 24 24" fill="none" xmlns="http://www.w3.org/2000/svg">
<g clip-path="url(#clip0_526_6958)">
<path d="M12.4518 1.1958H12.4462C6.5363 1.1958 1.73047 6.01596 1.73047 11.9434C1.73047 14.2944 2.48601 16.4736 3.77091 18.2428L2.43529 22.2352L6.55535 20.9148C8.25003 22.0406 10.2718 22.6909 12.4518 22.6909C18.3617 22.6909 23.1675 17.8692 23.1675 11.9433C23.1675 6.0174 18.3616 1.1958 12.4518 1.1958Z" fill="#6D120C"/>
<path d="M18.6876 16.3725C18.4289 17.1049 17.4026 17.7119 16.5841 17.8895C16.0238 18.0089 15.2924 18.1045 12.8301 17.0807C9.67996 15.7722 7.65151 12.5627 7.49361 12.3544C7.342 12.1461 6.2207 10.6552 6.2207 9.11265C6.2207 7.57044 7.00171 6.8193 7.31671 6.49717C7.57505 6.23226 8.00253 6.1116 8.41253 6.1116C8.54523 6.1116 8.66436 6.11816 8.77177 6.1236C9.08658 6.13716 9.24453 6.15581 9.45238 6.65426C9.71095 7.27908 10.3405 8.82125 10.4157 8.97991C10.4921 9.13848 10.5683 9.35326 10.4612 9.56142C10.3606 9.77651 10.2723 9.87183 10.1142 10.0544C9.956 10.2374 9.80578 10.3771 9.64784 10.573C9.50323 10.7436 9.33972 10.9264 9.52201 11.2422C9.70417 11.5512 10.3337 12.5814 11.2608 13.409C12.4576 14.477 13.4273 14.8183 13.7745 14.9635C14.0331 15.071 14.3412 15.0453 14.5299 14.8438C14.7698 14.5845 15.0662 14.1546 15.3675 13.7316C15.5818 13.4279 15.8524 13.3902 16.1365 13.4977C16.4258 13.5985 17.9572 14.3576 18.2721 14.5147C18.5868 14.6733 18.7948 14.7485 18.8711 14.8815C18.9461 15.0143 18.9461 15.6391 18.6876 16.3725Z" fill="#EADDAD"/>
</g>
<defs>
<clipPath id="clip0_526_6958">
<rect width="23" height="23" fill="white" transform="translate(0.949219 0.443359)"/>
</clipPath>
</defs>
</svg>
